<?xml version="1.0"?>
<svg xmlns="http://www.w3.org/2000/svg" id="Capa_1" enable-background="new 0 0 510.5 510.5" height="512px" viewBox="0 0 510.5 510.5" width="512px"><g><g><path d="m150.835 240.25c2.481-17.495 9.293-33.942 19.91-48.067l-106.497-106.499c-38.36 43.046-60.71 97.003-64.024 154.566z" data-original="#000000" class="active-path" data-old_color="#000000" fill="#FFFFFF"/><path d="m435.515 74.761c-48.211-48.21-112.309-74.761-180.489-74.761-63.155 0-122.798 22.796-169.565 64.471l106.508 106.509c41.195-30.867 100.044-27.589 137.48 9.847 19.88 19.879 30.827 46.31 30.827 74.423s-10.947 54.544-30.827 74.423c-20.519 20.519-47.471 30.777-74.423 30.777s-53.904-10.259-74.423-30.777c-16.299-16.298-26.587-37.001-29.768-59.423h-150.611c3.601 62.538 29.656 120.832 74.313 165.489 48.211 48.21 112.31 74.761 180.489 74.761s132.278-26.551 180.489-74.761c48.21-48.21 74.761-112.309 74.761-180.489s-26.551-132.279-74.761-180.489z" data-original="#000000" class="active-path" data-old_color="#000000" fill="#FFFFFF"/><path d="m308.236 308.46c14.213-14.213 22.04-33.11 22.04-53.21s-7.827-38.997-22.04-53.21c-14.67-14.669-33.94-22.004-53.21-22.004s-38.54 7.335-53.21 22.004c-14.213 14.213-22.04 33.11-22.04 53.21s7.827 38.997 22.04 53.21c29.34 29.339 77.08 29.339 106.42 0zm-85.206-85.207c17.643-17.643 46.35-17.642 63.992 0 17.644 17.643 17.644 46.35 0 63.993-8.821 8.821-20.409 13.232-31.996 13.232-11.588 0-23.175-4.411-31.996-13.231-17.644-17.643-17.644-46.351 0-63.994z" data-original="#000000" class="active-path" data-old_color="#000000" fill="#FFFFFF"/><path d="m265.809 266.033c2.88-2.88 4.467-6.71 4.467-10.783s-1.587-7.903-4.467-10.784c-2.973-2.973-6.878-4.459-10.783-4.459s-7.811 1.486-10.783 4.459c-2.88 2.88-4.467 6.71-4.467 10.783s1.587 7.903 4.467 10.784c5.945 5.946 15.619 5.946 21.566 0z" data-original="#000000" class="active-path" data-old_color="#000000" fill="#FFFFFF"/></g></g> </svg>
